<?xml version="1.0" standalone="no"?>
<!DOCTYPE svg PUBLIC "-//W3C//DTD SVG 20010904//EN"
 "http://www.w3.org/TR/2001/REC-SVG-20010904/DTD/svg10.dtd">
<svg version="1.0" xmlns="http://www.w3.org/2000/svg"
 width="1518.000000pt" height="1518.000000pt" viewBox="0 0 1518.000000 1518.000000"
 preserveAspectRatio="xMidYMid meet">
<metadata>
Created by potrace 1.11, written by Peter Selinger 2001-2013
</metadata>
<g transform="translate(0.000000,1518.000000) scale(0.100000,-0.100000)"
fill="#000000" stroke="none">
<path d="M8097 15174 c-1 -1 -56 -5 -122 -8 -66 -4 -131 -8 -145 -10 -14 -2
-52 -7 -85 -11 -124 -14 -280 -39 -375 -61 -36 -9 -76 -18 -90 -20 -14 -3 -32
-7 -40 -10 -8 -3 -25 -8 -38 -10 -12 -2 -74 -20 -137 -39 -327 -99 -641 -248
-925 -438 -69 -46 -219 -157 -247 -182 -6 -5 -33 -28 -60 -50 -446 -368 -880
-966 -1080 -1490 -37 -96 -46 -118 -48 -125 -1 -3 -4 -12 -8 -20 -19 -48 -88
-284 -102 -350 -2 -8 -8 -35 -14 -60 -5 -25 -12 -58 -15 -75 -3 -16 -8 -41
-11 -55 -5 -24 -18 -106 -29 -180 -3 -19 -8 -64 -11 -100 -4 -36 -8 -78 -10
-95 -2 -16 -7 -96 -11 -177 l-7 -148 102 0 101 0 1 48 c2 96 15 284 24 342 2
14 7 50 10 80 27 230 112 561 207 805 55 142 162 366 216 455 12 19 25 42 28
50 4 8 49 79 101 158 518 787 1363 1351 2273 1516 139 25 174 30 335 43 172
15 614 7 713 -12 10 -2 43 -6 74 -9 30 -3 79 -11 109 -16 30 -6 68 -13 84 -16
208 -36 512 -132 725 -228 457 -206 872 -515 1226 -911 308 -344 540 -746 681
-1175 32 -99 90 -315 99 -370 3 -14 7 -36 9 -50 22 -109 23 -116 40 -247 4
-37 13 -127 20 -208 10 -123 4 -495 -10 -615 -11 -94 -26 -206 -31 -230 -2
-14 -7 -41 -10 -60 -3 -19 -15 -73 -26 -120 -11 -47 -21 -92 -23 -100 -21 -92
-102 -332 -151 -450 -19 -44 -164 -336 -187 -375 -65 -112 -189 -296 -244
-365 -6 -8 -33 -42 -59 -75 -338 -426 -757 -766 -1219 -990 -232 -113 -482
-203 -695 -250 -161 -36 -256 -53 -395 -70 -27 -4 -61 -8 -75 -11 -27 -4 -211
-16 -300 -18 l-55 -2 -3 -102 -3 -101 118 4 c122 5 232 12 293 20 19 2 56 7
82 10 65 7 143 19 194 29 12 2 37 7 55 10 19 3 66 12 104 21 39 9 77 18 85 20
78 15 324 95 455 147 896 355 1699 1163 2060 2073 81 205 152 454 190 670 2
17 7 39 9 50 12 60 35 262 41 360 5 72 5 473 1 515 -2 19 -7 75 -11 124 -4 50
-8 97 -10 105 -2 9 -6 45 -10 81 -4 36 -8 67 -10 70 -2 3 -6 28 -9 55 -29 216
-130 566 -235 810 -56 130 -174 359 -199 388 -8 9 -12 17 -9 17 8 0 -117 188
-190 287 -198 267 -491 562 -779 780 -429 325 -924 558 -1414 665 -116 25
-112 24 -180 34 -30 4 -57 9 -60 9 -3 1 -32 5 -65 9 -33 4 -73 9 -90 11 -99
12 -488 27 -498 19z"/>
<path d="M2710 11454 l0 -3602 1303 1 1302 2 2 285 c1 157 0 294 -2 305 -4 20
-12 20 -994 19 -708 -1 -991 2 -994 10 -2 6 -3 1352 -3 2991 l1 2980 996 5
996 5 -1 300 -1 300 -1302 1 -1303 1 0 -3603z"/>
<path d="M8180 14509 l0 -181 93 3 c170 5 350 81 468 199 38 37 74 88 68 94
-2 2 -38 7 -79 11 -41 3 -86 8 -100 10 -14 2 -61 6 -105 10 -44 3 -91 8 -105
10 -14 2 -56 6 -95 10 -38 3 -87 8 -107 10 l-38 5 0 -181z"/>
<path d="M8930 14581 c-13 -4 -37 -24 -51 -46 l-27 -39 82 -32 c96 -37 143
-63 211 -113 189 -142 369 -402 510 -736 26 -60 52 -122 58 -137 7 -16 15 -28
18 -28 3 0 64 60 136 133 140 143 183 206 229 334 23 66 26 85 17 105 -6 15
-70 64 -155 120 -212 141 -334 206 -503 269 -44 17 -96 37 -115 44 -47 19
-340 121 -365 128 -11 3 -31 2 -45 -2z"/>
<path d="M8727 14385 c-16 -8 -42 -25 -57 -38 -16 -14 -93 -45 -177 -72 -81
-27 -149 -50 -151 -51 -2 -1 30 -43 70 -92 113 -139 193 -280 299 -527 25 -57
85 -237 125 -369 24 -83 46 -151 47 -152 4 -4 172 43 253 71 110 38 254 100
343 148 42 22 88 47 103 54 54 28 54 35 -5 189 -64 166 -134 288 -285 499
-114 159 -201 239 -327 300 -114 55 -187 67 -238 40z"/>
<path d="M3510 11460 l0 -2770 673 0 674 0 0 260 1 260 -417 2 -416 3 -1 2235
c0 1229 2 2241 4 2248 3 9 96 12 417 12 l413 0 -1 260 0 260 -674 0 -673 0 0
-2770z"/>
<path d="M8184 13603 l1 -618 25 1 c28 1 101 9 230 24 47 6 105 13 130 16 121
13 205 25 209 30 2 2 -15 68 -38 146 -24 79 -44 150 -46 158 -2 8 -17 53 -34
100 -126 342 -268 574 -458 743 l-20 18 1 -618z"/>
<path d="M10186 13878 c-44 -119 -115 -234 -205 -332 -39 -41 -163 -152 -200
-178 l-23 -16 22 -74 c54 -185 122 -459 135 -543 1 -11 8 -49 14 -85 17 -101
20 -117 35 -230 33 -237 54 -530 55 -767 l1 -113 678 0 679 0 -3 57 c-10 181
-32 360 -66 528 -23 118 -24 120 -37 163 -5 18 -10 36 -11 40 -5 38 -80 274
-100 317 -5 11 -26 61 -46 110 -103 248 -253 496 -452 745 -76 95 -423 450
-441 450 -5 0 -21 -33 -35 -72z"/>
<path d="M9635 13271 c-32 -19 -205 -107 -240 -122 -148 -61 -340 -127 -439
-151 -39 -9 -53 -16 -51 -28 2 -8 10 -49 19 -90 18 -89 62 -354 71 -425 7 -61
15 -129 20 -170 2 -16 7 -68 11 -115 3 -47 8 -101 10 -120 6 -69 21 -358 23
-483 l1 -27 432 2 432 3 -1 65 c-1 93 -13 386 -18 445 -2 28 -7 82 -10 120 -4
39 -8 81 -10 95 -2 14 -6 50 -10 80 -3 30 -10 80 -15 110 -5 30 -12 75 -15
100 -4 24 -8 47 -10 50 -1 3 -6 28 -9 55 -4 28 -16 91 -27 140 -11 50 -22 101
-25 115 -3 14 -14 58 -25 98 -10 39 -28 105 -39 145 -19 74 -37 127 -42 127
-2 0 -17 -8 -33 -19z"/>
<path d="M8725 12949 c-22 -4 -56 -10 -75 -14 -20 -3 -45 -7 -55 -9 -11 -2
-54 -7 -95 -10 -252 -23 -305 -28 -311 -32 -3 -2 -5 -304 -5 -671 l1 -668 390
0 c384 0 390 0 388 20 -4 40 -13 233 -18 365 -5 167 -26 383 -49 520 -3 14 -7
39 -9 55 -31 204 -75 427 -87 439 -13 13 -27 14 -75 5z"/>
<path d="M7224 11738 c-134 -171 -166 -206 -192 -216 -30 -12 -104 -32 -142
-38 -14 -3 -32 -7 -40 -10 -8 -3 -26 -8 -38 -10 -13 -3 -87 -20 -165 -39 -78
-19 -203 -48 -277 -65 -74 -18 -142 -34 -150 -36 -8 -2 -42 -10 -76 -18 -34
-8 -72 -17 -85 -20 -13 -2 -71 -16 -129 -30 -256 -61 -327 -78 -350 -82 -14
-3 -52 -12 -85 -21 -33 -8 -67 -16 -75 -18 -8 -2 -82 -19 -165 -38 -82 -20
-168 -38 -190 -41 -99 -14 -122 -20 -157 -37 -51 -26 -100 -77 -140 -146 -33
-56 -67 -132 -73 -163 -2 -8 -11 -44 -20 -80 -20 -74 -29 -278 -15 -355 5 -27
11 -68 15 -90 30 -189 148 -457 288 -651 81 -112 125 -162 233 -269 188 -188
362 -314 589 -425 187 -92 324 -136 545 -175 63 -12 314 -14 375 -4 194 32
375 117 485 230 68 70 112 170 105 244 -9 94 -17 175 -20 200 -2 17 -7 68 -10
115 -3 47 -8 117 -10 155 -3 39 -7 129 -10 200 -3 72 -7 166 -10 210 -2 44 -6
143 -10 220 -3 77 -8 169 -10 205 -6 78 -13 240 -20 450 -8 216 -13 309 -21
426 -8 119 -10 113 100 248 123 150 121 146 109 165 -5 9 -31 31 -56 49 l-46
33 -57 -73z m-564 -467 c0 -5 -8 -12 -17 -16 -10 -3 -132 -72 -271 -153 -139
-81 -272 -158 -295 -171 -23 -13 -87 -50 -143 -82 -55 -32 -104 -59 -109 -59
-5 0 -97 44 -204 97 l-194 97 69 18 c38 10 79 20 91 22 13 3 60 14 105 25 109
26 298 72 321 77 9 2 25 6 35 8 9 3 78 19 152 36 74 18 142 34 150 36 62 15
128 31 165 39 11 3 43 11 70 19 63 17 75 18 75 7z m166 -47 c-9 -8 -16 -19
-16 -22 0 -4 -10 -18 -23 -32 -12 -14 -33 -41 -47 -60 -13 -19 -27 -37 -30
-40 -3 -3 -106 -135 -229 -293 l-223 -288 -46 34 c-26 18 -85 60 -132 92 -47
33 -87 62 -90 66 -3 3 -15 11 -27 18 -13 6 -23 15 -23 20 0 7 393 241 615 366
22 13 92 53 155 89 117 67 144 78 116 50z m120 -145 c-55 -210 -246 -968 -246
-974 0 -3 -6 0 -14 7 -7 7 -53 49 -102 93 -49 44 -98 89 -109 100 -12 11 -40
37 -63 57 l-41 37 50 63 c27 35 55 70 62 78 7 8 115 147 241 308 126 161 230
291 232 289 2 -2 -2 -28 -10 -58z m108 -179 c4 -58 8 -179 11 -270 3 -91 7
-210 10 -265 3 -55 7 -152 10 -215 10 -204 15 -295 29 -513 2 -21 0 -34 -5
-30 -4 4 -60 76 -125 158 -65 83 -133 166 -151 185 -18 19 -36 44 -39 55 -2
11 36 182 86 380 50 198 92 369 95 380 2 11 9 38 15 60 6 22 13 51 16 65 2 14
7 32 10 40 3 8 8 26 10 39 5 26 14 44 19 39 2 -2 6 -50 9 -108z m-1788 15
c100 -17 368 -142 589 -277 107 -65 333 -233 326 -243 -64 -84 -527 -674 -537
-685 -13 -13 -29 0 -127 101 -192 198 -280 301 -436 515 -132 179 -204 348
-199 469 1 47 11 62 44 68 10 2 26 7 34 10 19 8 167 44 200 49 25 4 48 3 106
-7z m1087 -645 c107 -83 361 -338 470 -471 145 -176 257 -345 293 -445 7 -17
14 -99 18 -182 3 -84 7 -157 8 -163 5 -20 -59 -51 -115 -56 -153 -15 -480 104
-742 268 -98 61 -413 286 -442 315 -8 8 -17 14 -21 14 -4 0 -21 13 -39 28
l-31 28 66 85 c37 47 161 205 276 352 180 230 211 265 225 254 8 -6 24 -19 34
-27z"/>
<path d="M8180 10503 l0 -934 43 26 c137 85 279 128 474 144 23 2 52 43 58 85
4 22 20 97 35 166 37 164 68 314 75 370 3 25 8 52 10 60 2 8 7 40 11 70 3 30
7 64 9 75 1 11 5 49 9 85 4 36 9 76 11 90 10 66 22 200 30 340 2 52 8 140 11
195 3 55 7 114 7 130 l2 30 -393 1 -392 2 0 -935z"/>
<path d="M9059 11426 c0 -6 -2 -62 -4 -124 -3 -96 -8 -200 -20 -372 -3 -54
-15 -191 -20 -230 -2 -19 -7 -60 -10 -90 -4 -30 -8 -66 -10 -80 -2 -14 -7 -45
-10 -70 -6 -45 -33 -208 -40 -245 -34 -172 -49 -239 -83 -367 l-29 -108 36 -1
c36 0 67 -3 171 -14 95 -10 279 -55 419 -102 73 -24 135 -42 138 -40 2 3 22
55 43 115 58 165 147 495 175 652 18 98 27 148 31 175 2 17 6 44 9 60 28 180
49 396 60 630 4 77 8 151 9 165 4 60 27 58 -439 57 -304 0 -425 -3 -426 -11z"/>
<path d="M10020 11386 c-1 -94 -14 -322 -25 -446 -16 -168 -22 -230 -30 -279
-2 -13 -7 -45 -10 -70 -4 -25 -13 -82 -21 -126 -7 -44 -16 -93 -19 -110 -9
-55 -16 -90 -26 -135 -6 -25 -13 -56 -15 -70 -13 -67 -89 -331 -130 -450 -25
-74 -48 -142 -50 -150 -4 -11 18 -26 78 -53 46 -20 133 -65 193 -100 147 -84
144 -82 264 -163 62 -41 114 -70 126 -68 21 3 79 61 210 209 44 50 83 92 86
95 21 18 141 180 193 259 205 314 343 624 430 966 24 94 29 119 41 198 3 17 7
43 10 57 3 14 7 45 10 70 5 43 8 64 20 135 3 17 8 87 11 156 l6 126 -676 0
-676 0 0 -51z"/>
<path d="M8570 9624 c-119 -26 -270 -90 -329 -140 -62 -52 -62 -54 -61 -396 0
-172 3 -314 5 -317 9 -8 112 98 180 184 109 140 198 310 294 569 23 60 41 110
41 112 0 8 -67 1 -130 -12z"/>
<path d="M8746 9477 c-96 -266 -224 -502 -360 -659 -23 -27 -40 -51 -38 -54 1
-3 31 -6 67 -6 84 0 205 -24 277 -54 72 -30 98 -30 197 1 169 54 337 203 485
432 53 83 176 317 176 337 0 8 -8 16 -17 19 -10 3 -45 15 -78 27 -69 26 -201
66 -242 74 -131 27 -261 45 -328 45 l-80 1 -59 -163z"/>
<path d="M9595 9332 c-77 -151 -167 -300 -230 -382 -107 -141 -264 -269 -391
-320 -30 -12 -54 -25 -54 -29 0 -3 17 -25 38 -48 21 -23 55 -60 77 -84 l38
-42 126 42 c371 125 686 299 998 550 63 51 79 69 70 78 -14 13 -597 353 -606
353 -3 0 -33 -53 -66 -118z"/>
<path d="M8302 8653 c-107 -18 -122 -30 -123 -101 -1 -94 -1 -155 0 -200 l1
-44 142 3 c127 3 306 21 418 42 169 33 210 42 210 48 0 14 -88 93 -150 134
-160 105 -333 146 -498 118z"/>
<path d="M3653 7472 l-943 -2 0 -755 0 -755 2338 0 c1285 0 2347 -3 2359 -6
13 -4 37 -29 54 -58 41 -66 259 -437 259 -441 0 -2 75 -133 166 -292 170 -295
177 -306 243 -421 21 -37 68 -118 104 -180 37 -62 78 -132 91 -155 52 -93 445
-774 551 -957 62 -107 122 -211 132 -230 11 -19 48 -82 82 -138 33 -57 61
-106 61 -108 0 -3 17 -33 39 -67 21 -34 57 -93 78 -132 22 -38 68 -119 103
-180 35 -60 71 -123 80 -140 10 -16 33 -57 52 -90 20 -33 47 -80 60 -105 66
-118 594 -1026 608 -1045 4 -5 19 -30 32 -55 56 -100 534 -931 586 -1018 30
-50 63 -99 71 -106 14 -13 135 -15 811 -16 437 -1 799 -1 803 -1 9 1 -27 69
-153 296 -40 72 -86 155 -103 185 -17 30 -40 71 -52 90 -12 19 -25 42 -28 50
-4 8 -17 31 -28 50 -28 47 -176 303 -207 360 -14 25 -75 131 -135 235 -61 105
-118 204 -127 220 -10 17 -41 71 -70 120 -29 50 -61 105 -71 123 -11 17 -28
47 -38 65 -10 17 -121 210 -246 427 -125 217 -268 465 -318 550 -108 185 -220
378 -254 438 -83 147 -320 558 -461 802 -91 157 -179 308 -195 335 -15 28 -36
64 -46 80 -23 37 -345 595 -377 652 -28 49 -150 261 -163 283 -15 25 -157 272
-184 320 -14 25 -87 151 -162 280 -76 129 -151 260 -168 290 -16 30 -33 60
-38 65 -4 6 -102 175 -216 375 -350 611 -427 741 -448 752 -19 11 -2402 16
-4532 10z m4386 -487 c35 -61 75 -131 90 -157 14 -25 48 -84 75 -130 26 -45
62 -107 78 -136 17 -30 56 -97 87 -150 31 -54 60 -104 64 -112 4 -8 17 -31 28
-50 12 -19 98 -168 192 -330 93 -162 261 -452 372 -645 112 -192 212 -367 224
-387 11 -21 29 -53 40 -70 10 -18 84 -145 163 -283 80 -137 171 -295 203 -350
32 -55 66 -114 75 -131 10 -16 86 -149 170 -295 84 -145 164 -284 178 -308 14
-25 38 -68 55 -95 29 -49 379 -655 420 -726 18 -33 180 -313 225 -390 11 -19
31 -53 44 -76 12 -23 85 -149 161 -280 159 -274 141 -244 205 -354 27 -47 74
-128 104 -180 72 -125 320 -556 347 -604 12 -21 62 -107 111 -191 50 -85 90
-156 90 -157 0 -3 -747 -2 -762 1 -4 0 -26 36 -49 78 -23 43 -50 89 -59 103
-9 14 -30 50 -47 80 -17 30 -112 197 -213 370 -403 694 -426 734 -610 1055
-75 132 -219 382 -320 555 -169 289 -634 1097 -700 1215 -15 28 -72 124 -125
215 -54 91 -109 185 -122 209 -14 24 -60 103 -102 175 -43 73 -80 138 -84 146
-4 8 -17 31 -28 50 -12 19 -56 96 -99 170 -180 314 -354 617 -370 645 -10 17
-57 98 -105 180 -48 83 -155 267 -237 410 -82 143 -153 263 -157 268 -4 4
-1033 7 -2288 7 l-2280 0 2 382 c1 211 3 383 3 383 1 0 1101 0 2444 0 l2443 0
64 -110z"/>
<path d="M3598 6872 l-268 -2 0 -185 0 -185 2178 0 c1197 0 2187 -3 2199 -6
21 -6 103 -120 103 -144 0 -5 4 -10 9 -10 5 0 11 -8 14 -17 4 -10 17 -37 31
-60 40 -66 226 -393 259 -453 16 -30 34 -60 39 -67 5 -7 18 -27 27 -45 10 -18
72 -125 138 -238 118 -201 251 -431 301 -520 13 -25 28 -49 32 -55 4 -5 21
-35 37 -65 17 -30 64 -114 106 -187 42 -72 85 -147 95 -165 11 -18 91 -157
179 -308 89 -151 169 -291 180 -310 11 -19 34 -58 51 -86 18 -28 32 -55 32
-59 0 -5 6 -16 14 -24 7 -9 27 -41 43 -71 16 -30 61 -109 99 -175 38 -66 74
-128 79 -137 6 -10 48 -82 94 -160 46 -79 189 -327 318 -553 130 -225 359
-623 510 -883 151 -261 284 -491 296 -512 151 -264 337 -577 357 -601 l25 -30
197 -1 c109 -1 200 1 203 3 2 3 -30 66 -73 140 -43 74 -104 184 -136 244 -48
91 -237 424 -297 523 -26 43 -204 353 -231 402 -50 90 -256 447 -297 513 -22
37 -41 69 -41 72 0 3 -15 28 -33 57 -19 29 -37 60 -40 68 -4 8 -15 29 -26 45
-18 29 -309 537 -359 625 -14 25 -81 142 -150 260 -159 272 -610 1055 -630
1095 -9 17 -30 53 -47 80 -18 28 -43 70 -57 95 -54 96 -210 363 -248 426 -22
36 -40 67 -40 69 0 2 -23 43 -51 92 -28 48 -70 122 -94 163 -23 41 -68 120
-100 175 -32 55 -66 114 -75 130 -9 17 -96 165 -192 330 -299 514 -398 686
-398 696 0 5 -17 9 -37 10 -145 2 -4113 3 -4325 1z"/>
<path d="M2724 4903 l1 -758 1126 -1 1127 -1 -1 759 0 758 -1127 0 -1127 0 1
-757z"/>
<path d="M5172 4902 l-1 -759 1133 0 1133 0 -1 756 -1 756 -1132 3 -1131 2 0
-758z m2059 548 c1 -3 2 -251 3 -552 1 -360 -2 -549 -9 -551 -5 -2 -424 -3
-930 -3 l-920 1 -2 545 c-1 300 -1 550 1 555 4 10 1855 15 1857 5z"/>
<path d="M5171 1999 l0 -1989 1133 0 1133 0 0 1989 0 1988 -1133 1 -1133 0 0
-1989z m2066 1596 l0 -190 -921 1 c-507 1 -926 2 -931 3 -7 1 -10 67 -9 184 1
100 2 184 3 187 0 3 419 5 929 5 l929 0 0 -190z m-1317 -1034 c3 0 5 -529 5
-1173 l0 -1173 -273 -1 c-149 -1 -273 1 -273 5 -6 28 -4 2328 2 2336 5 7 102
10 271 9 145 -1 265 -2 268 -3z m1315 -1166 c0 -646 -2 -1176 -5 -1176 -12 -3
-496 -5 -505 -2 -7 2 -10 401 -9 1176 1 644 2 1172 3 1173 0 0 117 1 259 2
l257 1 0 -1174z"/>
<path d="M2727 3973 c-2 -5 -4 -899 -4 -1989 l0 -1981 1129 0 1128 0 0 1989 0
1988 -1124 0 c-619 0 -1127 -3 -1129 -7z"/>
</g>
</svg>
